<mxfile host="app.diagrams.net" agent="Mozilla/5.0 (Windows NT 10.0; Win64; x64) AppleWebKit/537.36 (KHTML, like Gecko) Chrome/131.0.0.0 Safari/537.36" version="24.9.1">
  <diagram name="Page-1" id="9AQEqXTkZjTldp22-I1w">
    <mxGraphModel dx="2286" dy="767" grid="1" gridSize="10" guides="1" tooltips="1" connect="1" arrows="1" fold="1" page="1" pageScale="1" pageWidth="850" pageHeight="1100" math="0" shadow="0">
      <root>
        <mxCell id="0" />
        <mxCell id="1" parent="0" />
        <mxCell id="Ktg5WG_uKDpj7h72ya8N-8" value="" style="edgeStyle=orthogonalEdgeStyle;rounded=0;orthogonalLoop=1;jettySize=auto;html=1;" edge="1" parent="1" source="Ktg5WG_uKDpj7h72ya8N-1" target="Ktg5WG_uKDpj7h72ya8N-3">
          <mxGeometry relative="1" as="geometry" />
        </mxCell>
        <mxCell id="Ktg5WG_uKDpj7h72ya8N-1" value="Data Rekanan" style="sketch=0;outlineConnect=0;fontColor=#232F3E;gradientColor=none;fillColor=#7AA116;strokeColor=none;dashed=0;verticalLabelPosition=bottom;verticalAlign=top;align=center;html=1;fontSize=12;fontStyle=0;aspect=fixed;pointerEvents=1;shape=mxgraph.aws4.iot_analytics_pipeline;" vertex="1" parent="1">
          <mxGeometry x="80" y="103.56" width="78" height="42" as="geometry" />
        </mxCell>
        <mxCell id="Ktg5WG_uKDpj7h72ya8N-10" value="" style="edgeStyle=orthogonalEdgeStyle;rounded=0;orthogonalLoop=1;jettySize=auto;html=1;" edge="1" parent="1" source="Ktg5WG_uKDpj7h72ya8N-2" target="Ktg5WG_uKDpj7h72ya8N-4">
          <mxGeometry relative="1" as="geometry" />
        </mxCell>
        <mxCell id="Ktg5WG_uKDpj7h72ya8N-2" value="Data Verifikasi" style="sketch=0;outlineConnect=0;fontColor=#232F3E;gradientColor=none;fillColor=#7AA116;strokeColor=none;dashed=0;verticalLabelPosition=bottom;verticalAlign=top;align=center;html=1;fontSize=12;fontStyle=0;aspect=fixed;pointerEvents=1;shape=mxgraph.aws4.iot_analytics_pipeline;" vertex="1" parent="1">
          <mxGeometry x="320" y="103.56" width="78" height="42" as="geometry" />
        </mxCell>
        <mxCell id="Ktg5WG_uKDpj7h72ya8N-9" value="" style="edgeStyle=orthogonalEdgeStyle;rounded=0;orthogonalLoop=1;jettySize=auto;html=1;" edge="1" parent="1" source="Ktg5WG_uKDpj7h72ya8N-3" target="Ktg5WG_uKDpj7h72ya8N-2">
          <mxGeometry relative="1" as="geometry" />
        </mxCell>
        <mxCell id="Ktg5WG_uKDpj7h72ya8N-3" value="Monitoring Data,Dept.DI" style="image;aspect=fixed;html=1;points=[];align=center;fontSize=12;image=img/lib/azure2/other/Azure_Monitor_Pipeline.svg;" vertex="1" parent="1">
          <mxGeometry x="200" y="100" width="68" height="49.120000000000005" as="geometry" />
        </mxCell>
        <mxCell id="Ktg5WG_uKDpj7h72ya8N-12" value="" style="edgeStyle=orthogonalEdgeStyle;rounded=0;orthogonalLoop=1;jettySize=auto;html=1;" edge="1" parent="1" source="Ktg5WG_uKDpj7h72ya8N-4" target="Ktg5WG_uKDpj7h72ya8N-11">
          <mxGeometry relative="1" as="geometry" />
        </mxCell>
        <mxCell id="Ktg5WG_uKDpj7h72ya8N-4" value="Verified Data,Dept.DI" style="image;aspect=fixed;html=1;points=[];align=center;fontSize=12;image=img/lib/azure2/other/Azure_Monitor_Pipeline.svg;" vertex="1" parent="1">
          <mxGeometry x="450" y="100" width="68" height="49.120000000000005" as="geometry" />
        </mxCell>
        <mxCell id="Ktg5WG_uKDpj7h72ya8N-11" value="Data Pengadaan" style="sketch=0;outlineConnect=0;fontColor=#232F3E;gradientColor=none;fillColor=#7AA116;strokeColor=none;dashed=0;verticalLabelPosition=bottom;verticalAlign=top;align=center;html=1;fontSize=12;fontStyle=0;aspect=fixed;pointerEvents=1;shape=mxgraph.aws4.iot_analytics_pipeline;" vertex="1" parent="1">
          <mxGeometry x="560" y="103.56" width="78" height="42" as="geometry" />
        </mxCell>
        <mxCell id="Ktg5WG_uKDpj7h72ya8N-16" value="" style="edgeStyle=orthogonalEdgeStyle;rounded=0;orthogonalLoop=1;jettySize=auto;html=1;" edge="1" parent="1" source="Ktg5WG_uKDpj7h72ya8N-13" target="Ktg5WG_uKDpj7h72ya8N-15">
          <mxGeometry relative="1" as="geometry" />
        </mxCell>
        <mxCell id="Ktg5WG_uKDpj7h72ya8N-13" value="Check Dokumen,Dept DI" style="image;aspect=fixed;html=1;points=[];align=center;fontSize=12;image=img/lib/azure2/other/Azure_Monitor_Pipeline.svg;" vertex="1" parent="1">
          <mxGeometry x="580" y="210" width="68" height="49.120000000000005" as="geometry" />
        </mxCell>
        <mxCell id="Ktg5WG_uKDpj7h72ya8N-14" style="edgeStyle=orthogonalEdgeStyle;rounded=0;orthogonalLoop=1;jettySize=auto;html=1;entryX=0.946;entryY=0.636;entryDx=0;entryDy=0;entryPerimeter=0;" edge="1" parent="1" source="Ktg5WG_uKDpj7h72ya8N-11" target="Ktg5WG_uKDpj7h72ya8N-13">
          <mxGeometry relative="1" as="geometry">
            <Array as="points">
              <mxPoint x="680" y="125" />
              <mxPoint x="680" y="241" />
            </Array>
          </mxGeometry>
        </mxCell>
        <mxCell id="Ktg5WG_uKDpj7h72ya8N-18" style="edgeStyle=orthogonalEdgeStyle;rounded=0;orthogonalLoop=1;jettySize=auto;html=1;" edge="1" parent="1" source="Ktg5WG_uKDpj7h72ya8N-15" target="Ktg5WG_uKDpj7h72ya8N-17">
          <mxGeometry relative="1" as="geometry" />
        </mxCell>
        <mxCell id="Ktg5WG_uKDpj7h72ya8N-15" value="Approved Data Pengadaan,Dirut" style="image;aspect=fixed;html=1;points=[];align=center;fontSize=12;image=img/lib/azure2/other/Azure_Monitor_Pipeline.svg;" vertex="1" parent="1">
          <mxGeometry x="410" y="210" width="68" height="49.120000000000005" as="geometry" />
        </mxCell>
        <mxCell id="Ktg5WG_uKDpj7h72ya8N-17" value="Data Kontrak/Blanket" style="sketch=0;outlineConnect=0;fontColor=#232F3E;gradientColor=none;fillColor=#7AA116;strokeColor=none;dashed=0;verticalLabelPosition=bottom;verticalAlign=top;align=center;html=1;fontSize=12;fontStyle=0;aspect=fixed;pointerEvents=1;shape=mxgraph.aws4.iot_analytics_pipeline;" vertex="1" parent="1">
          <mxGeometry x="242" y="213.56" width="78" height="42" as="geometry" />
        </mxCell>
        <mxCell id="Ktg5WG_uKDpj7h72ya8N-19" value="Created Berkas Invoice,Dept Keuangan" style="image;aspect=fixed;html=1;points=[];align=center;fontSize=12;image=img/lib/azure2/other/Azure_Monitor_Pipeline.svg;" vertex="1" parent="1">
          <mxGeometry x="70" y="206.44" width="68" height="49.120000000000005" as="geometry" />
        </mxCell>
        <mxCell id="Ktg5WG_uKDpj7h72ya8N-20" style="edgeStyle=orthogonalEdgeStyle;rounded=0;orthogonalLoop=1;jettySize=auto;html=1;entryX=1.029;entryY=0.572;entryDx=0;entryDy=0;entryPerimeter=0;" edge="1" parent="1" source="Ktg5WG_uKDpj7h72ya8N-17" target="Ktg5WG_uKDpj7h72ya8N-19">
          <mxGeometry relative="1" as="geometry" />
        </mxCell>
        <mxCell id="Ktg5WG_uKDpj7h72ya8N-26" style="edgeStyle=orthogonalEdgeStyle;rounded=0;orthogonalLoop=1;jettySize=auto;html=1;" edge="1" parent="1" source="Ktg5WG_uKDpj7h72ya8N-21">
          <mxGeometry relative="1" as="geometry">
            <mxPoint x="260" y="341" as="targetPoint" />
          </mxGeometry>
        </mxCell>
        <mxCell id="Ktg5WG_uKDpj7h72ya8N-21" value="Data Penagihan" style="sketch=0;outlineConnect=0;fontColor=#232F3E;gradientColor=none;fillColor=#7AA116;strokeColor=none;dashed=0;verticalLabelPosition=bottom;verticalAlign=top;align=center;html=1;fontSize=12;fontStyle=0;aspect=fixed;pointerEvents=1;shape=mxgraph.aws4.iot_analytics_pipeline;" vertex="1" parent="1">
          <mxGeometry x="70" y="320" width="78" height="42" as="geometry" />
        </mxCell>
        <mxCell id="Ktg5WG_uKDpj7h72ya8N-22" style="edgeStyle=orthogonalEdgeStyle;rounded=0;orthogonalLoop=1;jettySize=auto;html=1;" edge="1" parent="1" source="Ktg5WG_uKDpj7h72ya8N-19" target="Ktg5WG_uKDpj7h72ya8N-21">
          <mxGeometry relative="1" as="geometry">
            <Array as="points">
              <mxPoint x="-40" y="231" />
              <mxPoint x="-40" y="340" />
            </Array>
          </mxGeometry>
        </mxCell>
        <mxCell id="Ktg5WG_uKDpj7h72ya8N-27" style="edgeStyle=orthogonalEdgeStyle;rounded=0;orthogonalLoop=1;jettySize=auto;html=1;" edge="1" parent="1" source="Ktg5WG_uKDpj7h72ya8N-23" target="Ktg5WG_uKDpj7h72ya8N-25">
          <mxGeometry relative="1" as="geometry" />
        </mxCell>
        <mxCell id="Ktg5WG_uKDpj7h72ya8N-23" value="Lengkapi Berkas Tagihan dan Pembayaran,PM" style="image;aspect=fixed;html=1;points=[];align=center;fontSize=12;image=img/lib/azure2/other/Azure_Monitor_Pipeline.svg;" vertex="1" parent="1">
          <mxGeometry x="260" y="320" width="68" height="49.120000000000005" as="geometry" />
        </mxCell>
        <mxCell id="Ktg5WG_uKDpj7h72ya8N-25" value="Data Kontrak" style="sketch=0;outlineConnect=0;fontColor=#232F3E;gradientColor=none;fillColor=#7AA116;strokeColor=none;dashed=0;verticalLabelPosition=bottom;verticalAlign=top;align=center;html=1;fontSize=12;fontStyle=0;aspect=fixed;pointerEvents=1;shape=mxgraph.aws4.iot_analytics_pipeline;" vertex="1" parent="1">
          <mxGeometry x="460" y="323.56" width="78" height="42" as="geometry" />
        </mxCell>
        <mxCell id="Ktg5WG_uKDpj7h72ya8N-31" style="edgeStyle=orthogonalEdgeStyle;rounded=0;orthogonalLoop=1;jettySize=auto;html=1;" edge="1" parent="1" source="Ktg5WG_uKDpj7h72ya8N-28" target="Ktg5WG_uKDpj7h72ya8N-30">
          <mxGeometry relative="1" as="geometry">
            <mxPoint x="690" y="470" as="targetPoint" />
            <Array as="points">
              <mxPoint x="760" y="348" />
              <mxPoint x="760" y="450" />
            </Array>
          </mxGeometry>
        </mxCell>
        <mxCell id="Ktg5WG_uKDpj7h72ya8N-28" value="Update Proyek Jika Selesai,PM" style="image;aspect=fixed;html=1;points=[];align=center;fontSize=12;image=img/lib/azure2/other/Azure_Monitor_Pipeline.svg;" vertex="1" parent="1">
          <mxGeometry x="610" y="323.56" width="68" height="49.120000000000005" as="geometry" />
        </mxCell>
        <mxCell id="Ktg5WG_uKDpj7h72ya8N-29" style="edgeStyle=orthogonalEdgeStyle;rounded=0;orthogonalLoop=1;jettySize=auto;html=1;entryX=0.002;entryY=0.423;entryDx=0;entryDy=0;entryPerimeter=0;" edge="1" parent="1" source="Ktg5WG_uKDpj7h72ya8N-25" target="Ktg5WG_uKDpj7h72ya8N-28">
          <mxGeometry relative="1" as="geometry" />
        </mxCell>
        <mxCell id="Ktg5WG_uKDpj7h72ya8N-33" style="edgeStyle=orthogonalEdgeStyle;rounded=0;orthogonalLoop=1;jettySize=auto;html=1;" edge="1" parent="1" source="Ktg5WG_uKDpj7h72ya8N-30">
          <mxGeometry relative="1" as="geometry">
            <mxPoint x="470" y="450" as="targetPoint" />
          </mxGeometry>
        </mxCell>
        <mxCell id="Ktg5WG_uKDpj7h72ya8N-30" value="Data Proyek Selesai" style="sketch=0;outlineConnect=0;fontColor=#232F3E;gradientColor=none;fillColor=#7AA116;strokeColor=none;dashed=0;verticalLabelPosition=bottom;verticalAlign=top;align=center;html=1;fontSize=12;fontStyle=0;aspect=fixed;pointerEvents=1;shape=mxgraph.aws4.iot_analytics_pipeline;" vertex="1" parent="1">
          <mxGeometry x="600" y="430" width="74.29" height="40" as="geometry" />
        </mxCell>
        <mxCell id="Ktg5WG_uKDpj7h72ya8N-35" style="edgeStyle=orthogonalEdgeStyle;rounded=0;orthogonalLoop=1;jettySize=auto;html=1;" edge="1" parent="1" source="Ktg5WG_uKDpj7h72ya8N-32">
          <mxGeometry relative="1" as="geometry">
            <mxPoint x="150" y="445.43999999999994" as="targetPoint" />
          </mxGeometry>
        </mxCell>
        <mxCell id="Ktg5WG_uKDpj7h72ya8N-32" value="Memastikan Rekapan Seluruh Data Pasca Proyek" style="image;aspect=fixed;html=1;points=[];align=center;fontSize=12;image=img/lib/azure2/other/Azure_Monitor_Pipeline.svg;" vertex="1" parent="1">
          <mxGeometry x="398" y="420.88" width="68" height="49.120000000000005" as="geometry" />
        </mxCell>
        <mxCell id="Ktg5WG_uKDpj7h72ya8N-38" style="edgeStyle=orthogonalEdgeStyle;rounded=0;orthogonalLoop=1;jettySize=auto;html=1;" edge="1" parent="1" source="Ktg5WG_uKDpj7h72ya8N-36" target="Ktg5WG_uKDpj7h72ya8N-1">
          <mxGeometry relative="1" as="geometry">
            <Array as="points">
              <mxPoint x="-80" y="435" />
              <mxPoint x="-80" y="125" />
            </Array>
          </mxGeometry>
        </mxCell>
        <mxCell id="Ktg5WG_uKDpj7h72ya8N-36" value="Update Data Ke Rekapan Berdasarkan Tipe Rekapan" style="image;aspect=fixed;html=1;points=[];align=center;fontSize=12;image=img/lib/azure2/other/Azure_Monitor_Pipeline.svg;" vertex="1" parent="1">
          <mxGeometry x="80" y="410" width="68" height="49.120000000000005" as="geometry" />
        </mxCell>
        <mxCell id="Ktg5WG_uKDpj7h72ya8N-40" value="" style="rounded=0;whiteSpace=wrap;html=1;fillColor=none;" vertex="1" parent="1">
          <mxGeometry x="-100" y="70" width="900" height="450" as="geometry" />
        </mxCell>
      </root>
    </mxGraphModel>
  </diagram>
</mxfile>
